<svg xmlns="http://www.w3.org/2000/svg" height="32" width="32"><path d="M15.304 16.095V9.876c0-.302.25-.558.557-.558.298 0 .557.25.557.558v6.22a1.671 1.671 0 010 3.15v1.764c0 .302-.25.558-.557.558a.563.563 0 01-.557-.558v-1.764a1.671 1.671 0 010-3.15zm9.21-7.866a12.758 12.758 0 00-8.096-3.353h0v-2.24h1.113V1.523h-3.34v1.113h1.113v2.24c-6.815.291-12.25 5.908-12.25 12.794 0 7.073 5.734 12.807 12.807 12.807s12.807-5.734 12.807-12.807a12.76 12.76 0 00-3.366-8.653l1.369-1.37.787.788.788-.787-2.362-2.363-.788.788.788.787zm-8.653 21.135c6.458 0 11.693-5.236 11.693-11.694 0-6.458-5.235-11.693-11.693-11.693-6.458 0-11.693 5.235-11.693 11.693 0 6.458 5.235 11.694 11.693 11.694zm0-11.137a.557.557 0 100-1.113.557.557 0 000 1.113z" fill="none" stroke="#000" stroke-width="1.14035712" stroke-linecap="round" stroke-miterlimit="2" fill-rule="evenodd"/></svg>