<?xml version="1.0" encoding="utf-8"?>
<!-- Generator: Adobe Illustrator 23.0.0, SVG Export Plug-In . SVG Version: 6.00 Build 0)  -->
<svg version="1.1" id="Capa_1" xmlns="http://www.w3.org/2000/svg" xmlns:xlink="http://www.w3.org/1999/xlink" x="0px" y="0px"
	 viewBox="0 0 59 54" style="enable-background:new 0 0 59 54;" xml:space="preserve">
<style type="text/css">
	.st0{fill-rule:evenodd;clip-rule:evenodd;fill:#FF6C75;}
</style>
<path class="st0" d="M6.7,53.7c-2.2-3.5-3.9-7.1-5-10.6C0.5,39.6,0,36.1,0,32.6c0-6,1.6-11.8,4.7-17.3S12.5,4.7,18.6,0l8.3,4.9
	c0.7,0.4,1.2,0.9,1.5,1.5s0.5,1.1,0.5,1.6c0,0.6-0.1,1.2-0.4,1.8s-0.6,1-1,1.4c-0.6,0.7-1.3,1.5-2.1,2.5s-1.5,2.1-2.1,3.5
	s-1.3,2.8-1.7,4.4s-0.7,3.3-0.7,5.2c0,2,0.4,4.2,1.1,6.5c0.7,2.3,1.9,4.8,3.5,7.4c0.6,0.9,0.8,1.8,0.8,2.7c0,1-0.3,1.9-1,2.7
	s-1.6,1.4-2.8,1.9L6.7,53.7z M36.8,53.7c-2.2-3.5-3.9-7.1-5-10.6c-1.1-3.5-1.6-7-1.6-10.5c0-6,1.6-11.8,4.7-17.3S42.7,4.7,48.8,0
	l8.3,4.9c0.7,0.4,1.2,0.9,1.5,1.5S59,7.4,59,8c0,0.6-0.1,1.2-0.4,1.8s-0.6,1-1,1.4c-0.6,0.7-1.3,1.5-2.1,2.5s-1.5,2.1-2.1,3.5
	c-0.7,1.3-1.3,2.8-1.7,4.4s-0.7,3.3-0.7,5.2c0,2,0.4,4.2,1.1,6.5c0.7,2.3,1.9,4.8,3.5,7.4c0.6,0.9,0.8,1.8,0.8,2.7
	c0,1-0.3,1.9-1,2.7s-1.6,1.4-2.8,1.9L36.8,53.7z"/>
</svg>
