<?xml version="1.0" encoding="UTF-8"?>
<svg width="516px" height="119px" viewBox="0 0 516 119" version="1.1" xmlns="http://www.w3.org/2000/svg" xmlns:xlink="http://www.w3.org/1999/xlink">
    <title>logo@2x</title>
    <g id="Page-1" stroke="none" stroke-width="1" fill="none" fill-rule="evenodd">
        <g id="Group-4" transform="translate(5.000000, 5.000000)">
            <text id="noah’s" font-family="Poppins-ExtraBold, Poppins" font-size="77.8131" font-weight="700" letter-spacing="11.5" fill="#1D1D4F">
                <tspan x="129" y="82">NOAH’S</tspan>
            </text>
            <g id="Group-2">
                <path d="M54.11,2.84217094e-14 C24.226,2.84217094e-14 2.84217094e-14,24.226 2.84217094e-14,54.11 C2.84217094e-14,83.994 24.226,108.219 54.11,108.219 C83.993,108.219 108.219,83.994 108.219,54.11 C108.219,24.226 83.993,2.84217094e-14 54.11,2.84217094e-14 Z" id="Fill-1" fill="#FFD607"></path>
                <g id="puntero" transform="translate(49.500000, 52.000000) scale(-1, 1) rotate(-15.000000) translate(-49.500000, -52.000000) translate(28.000000, 26.000000)" fill="#1D1D4F" fill-rule="nonzero">
                    <path d="M5.69186248,52 C5.08356646,52 4.46582704,51.9001637 3.85873657,51.6940927 C1.5569565,50.9128714 0.0423948667,48.820169 0,46.3625514 C0,46.3508717 0,46.3390904 0,46.3274107 L0,5.72837599 C0.0105484858,3.53908739 1.21488418,1.58085426 3.14294646,0.607780678 C5.06518196,-0.36244914 7.32928886,-0.160034398 9.05140451,1.13600901 C9.05682945,1.14007153 9.06225438,1.1442356 9.06767932,1.14839968 L27.6472799,15.4277288 C28.5306402,16.1066764 28.7023294,17.3809854 28.0307425,18.2740275 C27.359256,19.1670695 26.0988626,19.340742 25.2153014,18.6616928 L6.64534513,4.38967618 C5.91739915,3.84672123 5.20914367,4.10570648 4.93779643,4.24261319 C4.66293303,4.38134803 4.02299156,4.80476351 4.01857124,5.73832914 L4.01857124,46.306895 C4.04449038,47.388133 4.88093507,47.7556889 5.13771536,47.8428298 C5.39318964,47.9294629 6.27142642,48.1448777 6.93758842,47.3158202 L17.3638122,32.6320678 C17.7412471,32.1004879 18.3488399,31.7853384 18.9961151,31.7853384 L37.3665543,31.7853384 C38.4281338,31.7553774 38.7960248,30.8921948 38.8838284,30.6272173 C38.9724356,30.3594977 39.1950589,29.4361899 38.3540934,28.7593751 L33.8553149,25.3018714 C32.9719546,24.6229238 32.8002654,23.3486148 33.4718524,22.4555727 C34.1433388,21.5626322 35.4038327,21.3888582 36.2872935,22.0679074 L40.8005385,25.5365831 C40.8088768,25.5429815 40.8173156,25.5494816 40.8255534,25.5560831 C42.7376423,27.0742445 43.4712141,29.5709638 42.6945442,31.9167607 C41.919984,34.2561592 39.8533849,35.7991019 37.4296442,35.8474458 C37.4163833,35.8476489 37.4032228,35.8478521 37.3899618,35.8478521 L20.0271542,35.8478521 L10.1729597,49.7257033 C10.1562831,49.7490628 10.139305,49.7721175 10.1217242,49.7946645 C9.01604197,51.2198958 7.39127377,52 5.69186248,52 L5.69186248,52 Z" id="Path"></path>
                </g>
                <path d="M54.11,108.219 C83.993,108.219 108.219,83.994 108.219,54.11 C108.219,24.226 83.993,0 54.11,0 C24.226,0 0,24.226 0,54.11" id="Path" stroke="#1D1D4F" stroke-width="10" stroke-linecap="round" stroke-linejoin="round"></path>
            </g>
        </g>
    </g>
</svg>